<svg id="Layer_1" xmlns="http://www.w3.org/2000/svg" viewBox="-389.8 299 18.8 18.8"><style>.st0{fill:#fff}</style><title>Add Copy 4</title><g id="Product-Announcement"><g id="PA-clicked" transform="translate(-247 -1623)"><g id="Oval-28-_x2B_-Emily-Wade" transform="translate(236 1612)"><path id="Add-Copy-4" class="st0" d="M-374.3 327.2c-.8.8-2.1.8-3 0-.8-.8-.8-2.1 0-3l4.4-4.4-4.4-4.4c-.8-.8-.8-2.1 0-3 .8-.8 2.1-.8 3 0l4.4 4.4 4.4-4.4c.8-.8 2.1-.8 3 0 .8.8.8 2.1 0 3l-4.4 4.4 4.4 4.4c.8.8.8 2.1 0 3-.8.8-2.1.8-3 0l-4.4-4.4-4.4 4.4z"/></g></g></g></svg>